<?xml version="1.0" encoding="UTF-8" standalone="no"?>
<svg viewBox="0 0 32 32" xmlns="http://www.w3.org/2000/svg" xmlns:xlink="http://www.w3.org/1999/xlink" id="Layer_1" xml:space="preserve" overflow="hidden"><line x1="1.1" y1="1" x2="31.1" y2="1" stroke="#000000" stroke-width="0.72" stroke-linejoin="round" stroke-miterlimit="10" fill="none"/><line x1="1.1" y1="31" x2="31.1" y2="31" stroke="#000000" stroke-width="0.72" stroke-linejoin="round" stroke-miterlimit="10" fill="none"/><g><path d="M31.1 0.6 1.1 0.6C0.9 0.6 0.7 0.8 0.7 1L0.7 31C0.7 31.2 0.9 31.4 1.1 31.4L31.1 31.4C31.3 31.4 31.5 31.2 31.5 31L31.5 1C31.4 0.8 31.3 0.6 31.1 0.6ZM30.7 1.3 30.7 10.6 1.4 10.6 1.4 1.3 30.7 1.3ZM30.7 11.3 30.7 20.6 1.4 20.6 1.4 11.3 30.7 11.3ZM1.4 30.6 1.4 21.3 30.7 21.3 30.7 30.6 1.4 30.6Z"/><circle cx="26.1" cy="6" r="1"/><circle cx="26.1" cy="16" r="1"/><circle cx="26.1" cy="26" r="1"/></g><rect x="0" y="0" width="32" height="32" fill="none"/></svg>