<svg viewBox="0 0 2129.9 2257.5" xmlns="http://www.w3.org/2000/svg" xmlns:xlink="http://www.w3.org/1999/xlink" overflow="hidden"><linearGradient x1="541.988" y1="1018.51" x2="1332.35" y2="67.4468" gradientUnits="userSpaceOnUse" id="a"><stop offset="0" stop-color="#43565E"/><stop offset="1" stop-color="#172429"/></linearGradient><path d="M1816 781.4 1808.1 779.8C1810.9 747.5 1812.5 714 1811.6 682.1 1810.7 647.9 1800.2 505.6 1771.8 421.5 1757.6 379.8 1742.4 339.6 1714.2 303.6 1711 299.8 1707.9 295.7 1704.4 291.6 1700.9 287.2 1693.6 290.7 1694.9 296.3 1731.3 452.8 1729.7 627.4 1704.1 783.3 1687.3 884.8 1663.6 1003.1 1610.5 1090 1551.7 1186.1 1443.5 1208.6 1345.8 1223.4 1253.1 1237.6 1065 1239.5 1065 1239.5 1065 1239.5 876.5 1237.3 784.2 1223.4 686.8 1208.5 578.3 1186.1 519.5 1090 466.4 1003 442.7 884.5 425.9 783.3 400.3 627.7 398.7 453.2 435.1 296.3 436.4 290.9 429.4 287.4 425.6 291.6 422.1 295.7 419 299.8 415.8 303.6 387.7 339.6 372.5 379.5 358.2 421.5 329.7 505.3 319.3 647.9 318.4 682.1 317.5 714 319 747.6 321.9 779.8L314 781.4C299.1 784.6 289.3 796.6 291.5 809.5L338.6 1109C340.5 1122 353.8 1131.5 369 1131.1L403.2 1130.2C410.5 1146.6 418.4 1163.1 427.2 1178.9 448.4 1216.8 478.7 1245 515.7 1266.8 551.1 1288 590 1299.4 629.9 1308.2 676.4 1318.6 723.5 1325 770.9 1330.3 783.2 1331.9 804.4 1334.4 817.4 1336 820.6 1336.3 821.2 1340.7 818 1341.7 781 1352.5 702.3 1388.8 668.1 1421.4 636.5 1449.2 607.7 1479.6 583.7 1514.1 563.1 1543.8 544.5 1575.1 535.3 1610.9L535.3 1611.5C527.7 1641.9 545.7 1672.8 575.5 1683 725.4 1733.3 890.8 1761.1 1064.7 1761.1 1238.6 1761.1 1403.7 1733.3 1553.9 1683 1583.6 1672.9 1601.6 1641.9 1594.1 1611.5L1594.1 1610.9C1584.9 1575.2 1566.6 1544.2 1545.7 1514.1 1521.7 1479.6 1492.9 1449 1461.3 1421.4 1426.8 1388.8 1348.1 1352.5 1311.4 1341.7 1308.6 1340.8 1309.2 1336.3 1312 1336 1325 1334.4 1346.2 1331.9 1358.5 1330.3 1405.9 1324.6 1453 1318.6 1499.5 1308.2 1539.3 1299.3 1578.2 1288 1613.7 1266.8 1650.7 1245 1681.1 1216.8 1702.2 1178.9 1711.1 1163.1 1719 1146.6 1726.2 1130.2L1760.4 1131.1C1775.6 1131.4 1788.5 1121.9 1790.8 1109L1837.9 809.5C1840.4 796.6 1830.6 784.5 1816 781.4Z" fill="#B7C1C6"/><path d="M2127.8 2210.7 2052.2 2001 2051.9 2000.1C2040.2 1970.4 2011.7 1951.1 1979.8 1951.1 1947.9 1951.1 1919.7 1970.4 1907.7 1999.8L1831.2 2210.4C1829 2216.4 1828.7 2222.7 1829.9 2228.7 1833.4 2244.2 1847 2255.3 1862.2 2255.3L1967.2 2255.3C1976.4 2255.3 1984 2249.6 1986.2 2241.1 1988.4 2232.6 1984.3 2223.7 1976.4 2219.3L1911.3 2183.3 1969.2 2023.6C1971.1 2019.2 1975.2 2016.6 1980 2016.6 1984.8 2016.6 1988.9 2019.4 1990.8 2023.6L2066.1 2232.6C2070.8 2245.6 2083.2 2254.4 2097.1 2254.4 2100.9 2254.4 2104.7 2253.8 2108.2 2252.5 2116.4 2249.7 2123.1 2243.6 2126.9 2235.4 2130.4 2227.8 2131 2218.9 2127.8 2210.7ZM141.3 2212.6C130.2 2206.6 117.6 2199.6 112.5 2196.8L112.5 2020.3 135 2007.7C142 2003.9 146.4 1996.3 147 1987.8 147.6 1978.3 144.2 1969.5 136.9 1963.8 132.2 1960 126.8 1959.4 123 1959.4L35.7 1959.4C31.6 1959.4 26.5 1960 21.8 1963.8 14.8 1969.5 11 1978.3 11.7 1987.8 12.3 1996.3 17.1 2003.9 23.7 2007.7L46.2 2020.3 46.2 2192.6 31 2192.6C14.2 2192.6 1.74083e-13 2207.5 1.74083e-13 2225.2 1.74083e-13 2242.6 14.2 2257.1 31 2257.1L134.7 2257.1C143.6 2257.1 150.8 2251.1 153.4 2241.6 156.2 2232.5 153.4 2219.2 141.3 2212.6ZM1741.7 1951.4C1723.4 1951.4 1708.5 1966.3 1708.5 1984.3L1708.5 2187.6 1700.6 2187.6 1606.4 1993.1C1595 1970.3 1572.6 1956.7 1546 1956.7L1510 1956.7C1491 1956.7 1475.8 1970.6 1475.8 1988L1475.8 2223.6C1475.8 2241.6 1490.7 2256.5 1509 2256.5 1527.3 2256.5 1542.2 2241.6 1542.2 2223.6L1542.2 2022.2 1546.9 2022.2 1641.4 2218.9C1653.1 2242.6 1676.2 2257.5 1701.8 2257.5L1741 2257.5C1758.7 2257.5 1774.8 2240.7 1774.8 2222.1L1774.8 1984.6C1774.9 1966.3 1760.1 1951.4 1741.7 1951.4ZM1091.6 1961.5 880.7 1961.5C862.4 1961.5 847.8 1975.7 847.8 1994.1 847.8 2012.5 862.3 2026.7 880.7 2026.7L953.7 2026.7 953.7 2219.9C953.7 2238.2 967.9 2252.8 986.3 2252.8 1004.6 2252.8 1018.9 2238.3 1018.9 2219.9L1018.9 2026.7 1091.3 2026.7C1109.6 2026.7 1124.2 2012.5 1124.2 1994.1 1124.2 1975.7 1109.9 1961.5 1091.6 1961.5ZM478.4 1957.1C460.4 1957.1 445.8 1972 445.8 1990L445.8 2187.6 438 2187.6 343.8 1993.1C332.4 1970.3 310 1956.7 283.4 1956.7L247.4 1956.7C228.4 1956.7 213.2 1970.6 213.2 1988L213.2 2223.6C213.2 2241.6 228.1 2256.5 246.4 2256.5 264.7 2256.5 279.6 2241.6 279.6 2223.6L279.6 2022.2 284.3 2022.2 378.8 2218.9C390.5 2242.6 413.6 2257.5 439.2 2257.5L478.4 2257.5C495.8 2257.5 511.3 2241.1 511.3 2222.1L511.3 1990.3C511.3 1971.9 496.5 1957.1 478.4 1957.1ZM1343.3 2001 1343 2000.1C1331.3 1970.4 1302.8 1951.1 1270.9 1951.1 1239 1951.1 1210.8 1970.4 1198.8 1999.8L1122.3 2210.7C1120.1 2216.7 1119.8 2223 1121 2229 1124.5 2244.5 1138.1 2255.6 1153.3 2255.6L1258.3 2255.6C1267.5 2255.6 1275.1 2249.9 1277.3 2241.4 1279.5 2232.9 1275.4 2224 1267.5 2219.6L1202.4 2183.6 1260.3 2023.9C1262.2 2019.8 1266.3 2016.9 1271.1 2016.9 1275.9 2016.9 1280 2019.7 1281.9 2023.9L1357.2 2232.9C1361.9 2245.9 1374.3 2254.7 1388.2 2254.7 1392 2254.7 1395.8 2254.1 1399.3 2252.8 1416.4 2246.8 1425.2 2227.8 1419.2 2210.7ZM765.9 2101.6 664.7 2055.1C655.5 2051.3 640 2043.1 640 2032 640 2025 645.7 2019.4 652.6 2019.4L741.1 2019.4C746.5 2019.4 750.6 2021.9 752.8 2027 758.5 2040.6 769.2 2048.2 782.5 2048.2 785.7 2048.2 789.1 2047.6 792 2046.6 799.9 2044.1 806.5 2038.4 810.3 2031.1 814.1 2023.5 814.7 2015.3 812.2 2007.1 801.4 1973.9 776.8 1956.5 741.4 1956.5L653 1956.5C611.6 1956.5 577.7 1990.3 577.7 2031.8 577.7 2066.6 599.8 2095 640 2112.1L741.5 2158.9C745.6 2160.5 765.8 2169.3 765.8 2181.7 765.8 2188.7 760.1 2194.3 753.2 2194.3L644.1 2194.3C638.1 2194.3 632.1 2190.5 630.5 2185.4 626.4 2172.4 614.4 2163.6 600.8 2163.6 597.6 2163.6 594.2 2164.2 591 2165.2 583.1 2167.7 576.5 2173.4 572.7 2180.7 569.2 2187.7 568.3 2195.9 570.8 2204.4 580 2238.2 606.2 2256.6 643.8 2256.6L752.9 2256.6C794.3 2256.6 828.2 2222.8 828.2 2181.3 828.2 2147.4 805.4 2118 765.9 2101.6Z" fill="#172429"/><ellipse cx="1065.3" cy="1206.4" rx="682.1" ry="122.7" fill="#FFFFFF" opacity="0.5"/><path d="M408.2 460.4C400.3 579.3 407.6 698.5 430.7 815.2 452.2 923 469.3 1036.9 543.3 1125.7 606.5 1201.6 719.4 1222.8 808.9 1233.5 893.6 1243.6 1065 1245.8 1065 1245.8 1065 1245.8 1236.4 1243.6 1321.1 1233.5 1410.9 1223.1 1523.5 1201.6 1586.7 1125.7 1660.7 1036.8 1677.8 923 1699.3 815.2 1722.7 698.5 1729.7 579.3 1721.8 460.4 1719 414.9 1712.9 368.1 1705 322.5 1700.3 294 1685.7 268.1 1664.5 248.8 1638.6 225.1 1604.7 197.3 1559.2 164.7 1517.1 134.3 1473.5 106.5 1425.8 85 1364.5 57.2 1301.2 34.4 1235.1 20.5 1183.9 9.5 1111.2 1.42109e-14 1064.4 1.42109e-14 1017.6 1.42109e-14 945.2 9.5 893.6 20.6 827.5 34.8 764.6 57.3 702.9 85.1 655.5 106.6 611.5 134.4 569.5 164.8 524 197.7 490.1 225.2 464.2 248.9 443 268.2 428.8 294.1 424 322.6 417.4 368.4 411.4 414.9 408.2 460.4Z" fill="#172429"/><path d="M1284.8 387.4C1427.1 387.4 1564.3 409.5 1693 450.6 1689.8 412.3 1684.8 373.4 1678.5 335.2 1673.8 308 1660.2 283.3 1639.9 264.7 1614.9 241.9 1582.7 215.4 1539 184.1 1498.5 155 1456.8 128.4 1411.2 107.9 1352.4 81.3 1292 59.5 1228.7 45.9 1179.7 35.5 1109.8 26.3 1065.2 26.3 1020.6 26.3 950.7 35.5 901.7 45.9 838.5 59.5 778.1 81.3 719.2 107.9 673.7 128.5 631.9 155.3 591.4 184.1 547.8 215.4 515.2 242 490.5 264.7 470.3 283.4 456.7 308 451.9 335.2 444.3 379.2 438.9 423.7 436.1 467.4 431.4 540.8 432.6 614.1 439.9 686.9 670.4 499.6 964.5 387.4 1284.8 387.4Z" fill="url(#a)"/><g fill="#22D8D8"><ellipse cx="705.8" cy="945.2" rx="74.6" ry="94.6" transform="matrix(0.9976 -0.0697177 0.0697177 0.9976 -64.181 51.5095)"/><path d="M1417.6 1039.7C1458.7 1042.2 1495.1 1002.1 1499.2 949.9 1503.3 897.7 1473 853.1 1432.2 850.6 1391.1 848.1 1354.7 888.2 1350.6 940.4 1346.5 992.6 1376.8 1036.9 1417.6 1039.7Z"/></g></svg>