<svg viewBox="0 0 32 32" xmlns="http://www.w3.org/2000/svg" xmlns:xlink="http://www.w3.org/1999/xlink" id="Layer_1" overflow="hidden"><path d="M29.36 16.5C29.36 15.067 28.563 13.76 27.308 13.094 27.342 12.889 27.36 12.693 27.36 12.5 27.36 11.067 26.563 9.76 25.308 9.094 25.343 8.889 25.36 8.692 25.36 8.5 25.36 6.994 24.496 5.433 23.322 4.77 23.08 2.999 21.441 1.64 19.5 1.64 17.946 1.64 16.611 2.568 16 3.896 15.389 2.569 14.054 1.64 12.5 1.64 10.511 1.64 8.868 3.148 8.672 5.112 7.431 5.783 6.64 7.09 6.64 8.5 6.64 8.692 6.657 8.888 6.691 9.094 5.436 9.76 4.64 11.067 4.64 12.5 4.64 12.692 4.657 12.888 4.691 13.094 3.436 13.76 2.64 15.067 2.64 16.5 2.64 17.375 2.943 18.222 3.498 18.91 3.261 19.424 3.14 19.957 3.14 20.5 3.14 22.11 4.162 23.55 5.663 24.105 5.647 24.242 5.64 24.373 5.64 24.5 5.64 26.332 6.952 27.906 8.733 28.267 9.093 30.048 10.668 31.361 12.5 31.361 14.055 31.361 15.389 30.432 16 29.105 16.176 29.487 16.412 29.835 16.697 30.138 16.715 30.178 16.713 30.223 16.746 30.256 16.779 30.289 16.824 30.287 16.864 30.305 17.555 30.955 18.479 31.361 19.5 31.361 21.332 31.361 22.906 30.049 23.267 28.267 25.048 27.907 26.361 26.332 26.361 24.5 26.361 24.372 26.353 24.243 26.338 24.105 27.838 23.549 28.861 22.11 28.861 20.5 28.861 19.958 28.74 19.425 28.502 18.91 29.057 18.223 29.36 17.376 29.36 16.5ZM13.36 30.505 13.36 28.704C13.36 27.52 12.441 26.654 11.331 25.724 11.178 25.598 10.951 25.617 10.824 25.769 10.696 25.921 10.716 26.149 10.869 26.277 12.018 27.24 12.641 27.912 12.641 28.705L12.641 30.626C12.594 30.628 12.549 30.64 12.501 30.64 10.939 30.64 9.607 29.465 9.404 27.908L9.368 27.634 9.094 27.598C7.535 27.394 6.36 26.062 6.36 24.5 6.36 24.364 6.382 24.234 6.401 24.102L8.146 23.329C8.328 23.249 8.41 23.036 8.329 22.854 8.248 22.671 8.035 22.586 7.854 22.67L6.051 23.47C4.757 23.056 3.86 21.856 3.86 20.5 3.86 20.113 3.961 19.734 4.113 19.36L7 19.36C7.199 19.36 7.36 19.199 7.36 19 7.36 18.801 7.199 18.64 7 18.64L4.217 18.64 4.193 18.614C3.656 18.027 3.36 17.277 3.36 16.5 3.36 15.255 4.1 14.127 5.244 13.625L5.518 13.505 5.45 13.214C5.389 12.957 5.36 12.723 5.36 12.5 5.36 11.347 5.999 10.301 7.002 9.754L8.723 11.94C9.036 12.32 9.319 12.628 9.624 12.869L7.746 14.747C7.605 14.888 7.605 15.115 7.746 15.256 7.816 15.325 7.908 15.36 8 15.36 8.092 15.36 8.184 15.325 8.254 15.255L10.254 13.255C10.259 13.25 10.257 13.241 10.262 13.236 10.482 13.313 10.721 13.361 11 13.361L13 13.361C13.199 13.361 13.36 13.2 13.36 13.001 13.36 12.802 13.199 12.641 13 12.641L11 12.641C10.344 12.641 9.995 12.351 9.283 11.489L7.442 9.149C7.392 8.919 7.36 8.702 7.36 8.5 7.36 7.371 7.99 6.329 8.975 5.776L9.769 6.44C9.836 6.497 9.918 6.524 10 6.524 10.103 6.524 10.205 6.48 10.276 6.395 10.403 6.243 10.383 6.016 10.231 5.888L9.4 5.193C9.558 3.594 10.882 2.36 12.5 2.36 14.231 2.36 15.64 3.769 15.64 5.5L15.64 9.669C15.078 8.998 14.199 8.64 13 8.64 12.801 8.64 12.64 8.801 12.64 9 12.64 9.199 12.801 9.36 13 9.36 14.826 9.36 15.64 10.174 15.64 12L15.64 16.659C14.891 16.735 14.474 17.017 14.12 17.282 13.665 17.625 13.306 17.894 12.071 17.647 11.875 17.605 11.686 17.734 11.647 17.929 11.608 18.123 11.734 18.314 11.929 18.352 12.304 18.427 12.62 18.459 12.893 18.459 13.75 18.459 14.17 18.144 14.552 17.857 14.852 17.632 15.132 17.44 15.64 17.375L15.64 22.628 13.5 22.638C12.456 22.638 11.729 22.048 11.341 20.884 11.279 20.696 11.073 20.593 10.886 20.656 10.698 20.719 10.595 20.923 10.658 21.112 11.309 23.066 12.718 23.358 13.501 23.358L15.64 23.348 15.64 27.498C15.64 28.931 14.672 30.128 13.36 30.505ZM26.121 23.406C25.502 22.124 24.562 21.62 22.94 21.628L21.934 21.64C20.727 21.64 20.36 21.257 20.36 20 20.36 19.801 20.199 19.64 20 19.64 19.801 19.64 19.64 19.801 19.64 20 19.64 21.654 20.327 22.36 21.939 22.36L22.949 22.348C22.973 22.347 22.998 22.347 23.022 22.347 24.437 22.347 25.094 22.763 25.585 23.954 25.616 24.132 25.64 24.312 25.64 24.499 25.64 25.915 24.669 27.133 23.327 27.501 23.249 26.439 22.913 25.625 22.248 25 22.102 24.864 21.875 24.87 21.739 25.015 21.602 25.161 21.609 25.388 21.754 25.524 22.318 26.055 22.582 26.744 22.623 27.708L22.597 27.907C22.394 29.465 21.062 30.639 19.5 30.639 18.764 30.639 18.096 30.374 17.56 29.949L19.255 28.254C19.396 28.113 19.396 27.885 19.255 27.744 19.114 27.603 18.886 27.603 18.745 27.744L17.05 29.44C16.624 28.904 16.359 28.236 16.359 27.5L16.359 27C16.359 25.42 16.863 25.36 18.999 25.36 19.198 25.36 19.359 25.199 19.359 25 19.359 24.801 19.198 24.64 18.999 24.64 17.884 24.64 16.958 24.655 16.359 25.096L16.359 17.338C17.821 17.294 18.285 16.99 18.688 16.717 18.98 16.517 19.212 16.36 20 16.36 20.199 16.36 20.36 16.199 20.36 16 20.36 15.801 20.199 15.64 20 15.64 18.99 15.64 18.631 15.885 18.283 16.121 17.949 16.348 17.594 16.58 16.36 16.618L16.36 8.331C16.922 9.002 17.801 9.36 19 9.36 19.199 9.36 19.36 9.199 19.36 9 19.36 8.801 19.199 8.64 19 8.64 17.174 8.64 16.36 7.826 16.36 6L16.36 5.5C16.36 3.769 17.769 2.36 19.5 2.36 20.995 2.36 22.256 3.336 22.555 4.64L20 4.64C19.801 4.64 19.64 4.801 19.64 5 19.64 5.199 19.801 5.36 20 5.36L22.888 5.36C23.874 5.863 24.639 7.224 24.639 8.5 24.639 8.691 24.606 8.897 24.562 9.111 23.616 9.91 22.833 10.674 22.674 11.64L20 11.64C19.801 11.64 19.64 11.801 19.64 12 19.64 12.199 19.801 12.36 20 12.36L22.64 12.36 22.64 15C22.64 15.199 22.801 15.36 23 15.36 23.199 15.36 23.36 15.199 23.36 15L23.36 12C23.36 11.251 23.92 10.607 24.949 9.728 25.98 10.268 26.639 11.329 26.639 12.5 26.639 12.724 26.61 12.957 26.549 13.213L26.481 13.505 26.755 13.625C27.9 14.126 28.639 15.255 28.639 16.5 28.639 17.277 28.343 18.028 27.806 18.613L27.782 18.639 25 18.639C24.801 18.639 24.64 18.8 24.64 18.999 24.64 19.198 24.801 19.359 25 19.359L27.887 19.359C28.039 19.732 28.139 20.113 28.139 20.499 28.14 21.795 27.32 22.944 26.121 23.406Z" id="intelligence_1_"/><rect x="0" y="0" width="32" height="32" id="_Transparent_Rectangle" fill="none"/></svg>