<svg viewBox="0 0 32 32" xmlns="http://www.w3.org/2000/svg" xmlns:xlink="http://www.w3.org/1999/xlink" id="Layer_1" xml:space="preserve" overflow="hidden"><path d="M16.195 31.36C9.774 31.36 4.026 27.353 1.796 21.358 1.051 21.408 0.373 20.771 0.372 20 0.372 19.25 0.982 18.64 1.732 18.64 2.482 18.64 3.092 19.25 3.092 20 3.092 20.474 2.849 20.892 2.481 21.135 4.614 26.833 10.085 30.64 16.195 30.64 22.641 30.64 28.114 26.339 29.968 20.42 28.52 22.48 26.091 23.86 23.403 23.86 19.581 23.86 16.337 21.075 15.739 17.335 15.113 17.212 14.64 16.661 14.64 16 14.64 15.416 15.01 14.917 15.528 14.725 14.92 11.304 11.913 8.763 8.403 8.763 4.456 8.763 1.363 11.939 1.361 15.994 1.361 15.996 1.361 15.998 1.361 16L0.64 16C0.64 15.998 0.64 15.996 0.64 15.993 0.644 7.526 7.445 0.64 15.805 0.64 22.225 0.64 27.973 4.646 30.204 10.641 30.981 10.607 31.629 11.228 31.629 11.999 31.629 12.749 31.019 13.359 30.269 13.359 29.519 13.359 28.909 12.749 28.909 11.999 28.909 11.526 29.152 11.108 29.52 10.864 27.387 5.166 21.916 1.36 15.805 1.36 9.486 1.36 4.101 5.494 2.146 11.233 3.548 9.284 5.808 8.043 8.402 8.043 12.283 8.043 15.606 10.869 16.248 14.663 16.88 14.779 17.36 15.335 17.36 16 17.36 16.589 16.984 17.092 16.459 17.28 17.026 20.643 19.955 23.139 23.402 23.139 27.259 23.139 30.529 20.021 30.637 16.288 30.638 16.192 30.639 16.096 30.639 15.999L31.36 15.999C31.36 16.032 31.36 16.064 31.359 16.097L31.36 16.097C31.36 16.166 31.359 16.235 31.357 16.304 31.196 24.634 24.456 31.36 16.195 31.36ZM1.732 19.36C1.379 19.36 1.092 19.647 1.092 20 1.092 20.353 1.379 20.64 1.732 20.64 2.085 20.64 2.372 20.353 2.372 20 2.372 19.647 2.085 19.36 1.732 19.36ZM16 15.36C15.647 15.36 15.36 15.647 15.36 16 15.36 16.353 15.647 16.64 16 16.64 16.353 16.64 16.64 16.353 16.64 16 16.64 15.647 16.353 15.36 16 15.36ZM30.269 11.36C29.916 11.36 29.629 11.647 29.629 12 29.629 12.353 29.916 12.64 30.269 12.64 30.622 12.64 30.909 12.353 30.909 12 30.909 11.647 30.621 11.36 30.269 11.36Z" id="ai_00000022531831768760603020000008722587886971577743_"/><rect x="0" y="0" width="32" height="32" id="_Transparent_Rectangle" fill="none"/></svg>