<svg viewBox="0 0 32 32" xmlns="http://www.w3.org/2000/svg" xmlns:xlink="http://www.w3.org/1999/xlink" id="Layer_1" xml:space="preserve" overflow="hidden"><path d="M4.632 8.771 5.752 8.771 5.752 17.115C5.752 17.619 5.626 18.025 5.374 18.334 5.122 18.642 4.725 18.795 4.184 18.795L3.457 18.795 3.457 17.802 4.633 17.802 4.632 8.771 4.632 8.771ZM5.192 7.078C4.949 7.078 4.774 7.02 4.667 6.903 4.56 6.786 4.506 6.634 4.506 6.448L4.506 6.266C4.506 6.079 4.56 5.928 4.667 5.811 4.774 5.694 4.95 5.636 5.192 5.636 5.434 5.636 5.61 5.694 5.717 5.811 5.824 5.928 5.878 6.08 5.878 6.266L5.878 6.448C5.878 6.635 5.824 6.786 5.717 6.903 5.61 7.02 5.435 7.078 5.192 7.078ZM13.382 15.996C12.962 15.996 12.661 15.884 12.479 15.66 12.297 15.436 12.183 15.156 12.136 14.82L12.066 14.82C11.907 15.268 11.646 15.604 11.282 15.828 10.918 16.052 10.484 16.164 9.98 16.164 9.214 16.164 8.62 15.968 8.195 15.576 7.77 15.184 7.558 14.652 7.558 13.98 7.558 13.299 7.808 12.776 8.307 12.412 8.806 12.048 9.583 11.866 10.638 11.866L12.066 11.866 12.066 11.152C12.066 10.639 11.926 10.247 11.646 9.976 11.366 9.705 10.937 9.57 10.358 9.57 9.919 9.57 9.553 9.668 9.259 9.864 8.965 10.06 8.72 10.321 8.524 10.648L7.852 10.018C8.048 9.626 8.36 9.292 8.79 9.017 9.219 8.742 9.76 8.604 10.414 8.604 11.291 8.604 11.973 8.818 12.458 9.247 12.943 9.676 13.186 10.271 13.186 11.035L13.186 15.002 14.012 15.002 14.012 15.996C14.012 15.996 13.382 15.996 13.382 15.996ZM10.163 15.211C10.443 15.211 10.7 15.179 10.933 15.113 11.166 15.048 11.367 14.954 11.535 14.833 11.703 14.712 11.834 14.572 11.927 14.413 12.02 14.254 12.067 14.082 12.067 13.895L12.067 12.705 10.583 12.705C9.939 12.705 9.47 12.798 9.176 12.985 8.882 13.172 8.735 13.442 8.735 13.797L8.735 14.091C8.735 14.445 8.863 14.721 9.12 14.917 9.376 15.114 9.724 15.211 10.163 15.211ZM17.093 15.996 14.559 8.772 15.679 8.772 16.939 12.356 17.723 14.82 17.792 14.82 18.576 12.356 19.864 8.772 20.942 8.772 18.394 15.996C18.394 15.996 17.093 15.996 17.093 15.996ZM27.508 15.996C27.088 15.996 26.787 15.884 26.606 15.66 26.423 15.436 26.309 15.156 26.262 14.82L26.193 14.82C26.034 15.268 25.773 15.604 25.409 15.828 25.045 16.052 24.611 16.164 24.107 16.164 23.341 16.164 22.747 15.968 22.322 15.576 21.897 15.184 21.685 14.652 21.685 13.98 21.685 13.299 21.934 12.776 22.434 12.412 22.933 12.048 23.709 11.866 24.764 11.866L26.193 11.866 26.193 11.152C26.193 10.639 26.052 10.247 25.773 9.976 25.493 9.705 25.063 9.57 24.485 9.57 24.046 9.57 23.679 9.668 23.385 9.864 23.091 10.06 22.846 10.321 22.651 10.648L21.979 10.018C22.174 9.626 22.487 9.292 22.917 9.017 23.347 8.742 23.888 8.604 24.541 8.604 25.418 8.604 26.1 8.818 26.585 9.247 27.07 9.676 27.314 10.271 27.314 11.035L27.314 15.002 28.139 15.002 28.139 15.996C28.139 15.996 27.508 15.996 27.508 15.996ZM24.288 15.211C24.568 15.211 24.825 15.179 25.059 15.113 25.291 15.048 25.493 14.954 25.661 14.833 25.829 14.712 25.96 14.572 26.053 14.413 26.147 14.254 26.194 14.082 26.194 13.895L26.194 12.705 24.71 12.705C24.066 12.705 23.597 12.798 23.303 12.985 23.009 13.172 22.863 13.442 22.863 13.797L22.863 14.091C22.863 14.445 22.991 14.721 23.248 14.917 23.502 15.114 23.85 15.211 24.288 15.211ZM31 31.36 1 31.36 1 30.64 31 30.64 31 31.36ZM31 24.36 1 24.36C0.801 24.36 0.64 24.199 0.64 24L0.64 1C0.64 0.801 0.801 0.64 1 0.64L31 0.64C31.199 0.64 31.36 0.801 31.36 1L31.36 24C31.36 24.199 31.199 24.36 31 24.36ZM1.36 23.64 30.64 23.64 30.64 1.36 1.36 1.36 1.36 23.64Z" id="java_2_"/><rect x="0" y="0" width="32" height="32" id="_Transparent_Rectangle" fill="none"/></svg>