<?xml version="1.0" encoding="UTF-8" standalone="no"?>
<svg viewBox="0 0 32 32" xmlns="http://www.w3.org/2000/svg" xmlns:xlink="http://www.w3.org/1999/xlink" id="Layer_1" xml:space="preserve" overflow="hidden"><path d="M28 31.36 4 31.36C3.801 31.36 3.64 31.199 3.64 31L3.64 1C3.64 0.801 3.801 0.64 4 0.64L22 0.64C22.096 0.64 22.188 0.678 22.255 0.745L28.255 6.745C28.322 6.813 28.36 6.904 28.36 7L28.36 31C28.36 31.199 28.199 31.36 28 31.36ZM4.36 30.64 27.64 30.64 27.64 7.36 22 7.36C21.801 7.36 21.64 7.199 21.64 7L21.64 1.36 4.36 1.36 4.36 30.64ZM22.36 6.64 27.131 6.64 22.36 1.869 22.36 6.64ZM24 27.36 8 27.36 8 26.64 24 26.64 24 27.36ZM24 23.36 8 23.36 8 22.64 24 22.64 24 23.36ZM24 19.36 8 19.36 8 18.64 24 18.64 24 19.36ZM24 15.36 8 15.36 8 14.64 24 14.64 24 15.36ZM24 11.36 8 11.36 8 10.64 24 10.64 24 11.36Z" id="documentation_00000169549664209796938480000018167874221036921985_"/><rect x="0" y="0" width="32" height="32" id="_Transparent_Rectangle" fill="none"/></svg>