<svg viewBox="0 0 32 32" xmlns="http://www.w3.org/2000/svg" xmlns:xlink="http://www.w3.org/1999/xlink" id="Layer_1" xml:space="preserve" overflow="hidden"><path d="M31 31.36 1 31.36 1 30.64 31 30.64 31 31.36ZM31.36 24 31.36 1C31.36 0.801 31.199 0.64 31 0.64L1 0.64C0.801 0.64 0.64 0.801 0.64 1L0.64 24C0.64 24.199 0.801 24.36 1 24.36L31 24.36C31.199 24.36 31.36 24.199 31.36 24ZM1.36 1.36 30.64 1.36 30.64 23.64 1.36 23.64 1.36 1.36ZM5.287 15.1C6.315 15.1 7.029 14.582 7.429 13.724L6.656 13.256C6.443 13.834 5.993 14.241 5.288 14.241 4.378 14.241 3.817 13.579 3.817 12.482L3.817 11.581C3.817 10.485 4.378 9.822 5.288 9.822 5.976 9.822 6.392 10.187 6.597 10.748L7.405 10.307C7.003 9.423 6.315 8.964 5.287 8.964 3.74 8.964 2.797 10.043 2.797 12.032 2.796 14.021 3.74 15.1 5.287 15.1ZM10.632 15.1C12.179 15.1 13.191 14.03 13.191 12.033 13.191 10.035 12.179 8.965 10.632 8.965 9.085 8.965 8.074 10.035 8.074 12.033 8.075 14.03 9.085 15.1 10.632 15.1ZM10.632 14.242C9.714 14.242 9.103 13.58 9.103 12.5L9.103 11.565C9.103 10.486 9.714 9.823 10.632 9.823 11.55 9.823 12.162 10.486 12.162 11.565L12.162 12.5C12.163 13.58 11.55 14.242 10.632 14.242ZM14.389 14.999 17.28 14.999C18.155 14.999 18.809 14.251 18.809 13.291 18.809 12.296 18.053 11.922 17.568 11.905L17.568 11.854C18.053 11.811 18.597 11.489 18.597 10.596 18.597 9.669 17.993 9.066 17.016 9.066L14.389 9.066C14.389 9.066 14.389 14.999 14.389 14.999ZM15.35 9.89 16.837 9.89C17.305 9.89 17.586 10.146 17.586 10.596L17.586 10.867C17.586 11.318 17.306 11.573 16.837 11.573L15.35 11.573 15.35 9.89ZM15.35 12.373 16.998 12.373C17.492 12.373 17.797 12.644 17.797 13.129L17.797 13.418C17.797 13.902 17.491 14.175 16.998 14.175L15.35 14.175 15.35 12.373ZM22.286 15.1C23.833 15.1 24.845 14.03 24.845 12.033 24.845 10.035 23.833 8.965 22.286 8.965 20.739 8.965 19.728 10.035 19.728 12.033 19.729 14.03 20.739 15.1 22.286 15.1ZM22.286 14.242C21.368 14.242 20.757 13.58 20.757 12.5L20.757 11.565C20.757 10.486 21.368 9.823 22.286 9.823 23.204 9.823 23.816 10.486 23.816 11.565L23.816 12.5C23.816 13.58 23.204 14.242 22.286 14.242ZM29.418 14.999 29.418 14.149 27.004 14.149 27.004 9.066 26.043 9.066 26.043 14.999C26.043 14.999 29.418 14.999 29.418 14.999Z" id="cobol--language_1_"/><rect x="0" y="0" width="32" height="32" id="_Transparent_Rectangle" fill="none"/></svg>