<svg viewBox="0 0 32 32" xmlns="http://www.w3.org/2000/svg" xmlns:xlink="http://www.w3.org/1999/xlink" id="Layer_1" overflow="hidden"><path d="M15.824 30.363C13.934 30.363 12.069 29.867 10.388 28.897 10.388 28.896 10.388 28.896 10.388 28.896 7.77 27.385 5.939 24.932 5.234 21.991 5.188 21.798 5.307 21.603 5.5 21.557 5.695 21.51 5.888 21.629 5.934 21.823 6.428 23.882 7.511 25.683 9.051 27.051 8.742 26.012 8.738 24.668 9.025 23.154 8.044 22.195 7.241 21.143 6.665 20.048 5.51 17.85 5.399 15.73 6.353 14.078 7.457 12.165 9.814 11.182 12.838 11.381 13.036 11.394 13.187 11.566 13.173 11.764 13.159 11.963 12.982 12.106 12.79 12.099 10.059 11.916 7.939 12.771 6.976 14.438 6.151 15.868 6.267 17.741 7.303 19.713 7.781 20.622 8.427 21.501 9.209 22.318 9.63 20.632 10.384 18.779 11.457 16.92 12.89 14.438 14.673 12.35 16.478 11.04 17.379 10.386 18.24 9.961 19.026 9.772 17.171 9.158 15.177 9.092 13.246 9.601 13.056 9.653 12.857 9.538 12.806 9.345 12.755 9.153 12.87 8.956 13.062 8.905 15.862 8.168 18.787 8.558 21.294 10.006 21.295 10.006 21.295 10.007 21.296 10.007 23.818 11.464 25.622 13.816 26.376 16.63 27.131 19.444 26.743 22.384 25.286 24.906 23.83 27.429 21.477 29.234 18.663 29.988 17.725 30.238 16.771 30.363 15.824 30.363ZM10.772 28.287C13.124 29.638 15.858 29.995 18.479 29.291 19.953 28.896 21.291 28.192 22.423 27.234 21.68 27.502 20.837 27.659 19.913 27.695 17.501 27.799 14.784 27.05 12.286 25.608 11.334 25.058 10.454 24.43 9.668 23.746 9.33 25.933 9.666 27.646 10.749 28.272 10.756 28.277 10.764 28.282 10.772 28.287ZM9.822 22.919C10.651 23.684 11.602 24.383 12.646 24.985 15.027 26.359 17.603 27.059 19.885 26.976 22.111 26.887 23.791 26.051 24.616 24.622 24.624 24.608 24.632 24.596 24.64 24.584 24.648 24.571 24.656 24.558 24.663 24.545 26.023 22.188 26.385 19.442 25.681 16.814 24.981 14.198 23.308 12.01 20.969 10.648 20.956 10.643 20.945 10.637 20.934 10.63 19.989 10.085 18.519 10.447 16.901 11.622 15.176 12.874 13.463 14.883 12.08 17.28 10.967 19.208 10.203 21.178 9.822 22.919ZM28.027 12.735C27.903 12.735 27.782 12.671 27.715 12.555 27.615 12.383 27.674 12.162 27.847 12.063L30.82 10.347C30.992 10.25 31.213 10.306 31.311 10.479 31.411 10.651 31.352 10.872 31.179 10.971L28.206 12.687C28.15 12.72 28.089 12.735 28.027 12.735ZM3.972 12.735C3.911 12.735 3.849 12.72 3.792 12.687L0.82 10.972C0.648 10.872 0.589 10.652 0.688 10.48 0.788 10.309 1.006 10.248 1.18 10.348L4.153 12.064C4.325 12.164 4.384 12.384 4.285 12.556 4.218 12.671 4.097 12.735 3.972 12.735ZM22.943 7.653C22.881 7.653 22.82 7.638 22.763 7.605 22.59 7.505 22.532 7.285 22.631 7.113L24.347 4.14C24.447 3.968 24.668 3.911 24.838 4.008 25.011 4.108 25.069 4.328 24.97 4.5L23.254 7.473C23.188 7.588 23.067 7.653 22.943 7.653ZM9.057 7.653C8.932 7.653 8.811 7.589 8.745 7.473L7.028 4.5C6.929 4.328 6.988 4.108 7.16 4.008 7.332 3.909 7.553 3.968 7.652 4.14L9.368 7.113C9.467 7.285 9.408 7.506 9.236 7.605 9.18 7.638 9.118 7.653 9.057 7.653ZM16 5.792C15.801 5.792 15.64 5.631 15.64 5.432L15.64 2C15.64 1.801 15.801 1.64 16 1.64 16.199 1.64 16.36 1.801 16.36 2L16.36 5.433C16.36 5.631 16.199 5.792 16 5.792Z" id="watson--logo_1_"/><rect x="0" y="0" width="32" height="32" id="_Transparent_Rectangle" fill="none"/></svg>