<svg viewBox="0 0 240.59 240.59" xmlns="http://www.w3.org/2000/svg" xmlns:xlink="http://www.w3.org/1999/xlink" id="_Шар_1" overflow="hidden"><g id="digital--id"><g id="touch--id"><path d="M128.34 217.09C126.89 217.09 125.66 215.99 125.53 214.52 124.86 207.04 120.29 199.5 111.59 199.5 103.56 199.5 98.87 204.07 93.91 211.43 93.03 212.72 91.28 213.06 89.99 212.19 88.7 211.32 88.36 209.57 89.23 208.28 94.28 200.79 100.48 193.87 111.59 193.87 123.79 193.87 130.27 204.32 131.15 214.02 131.29 215.57 130.15 216.94 128.6 217.08 128.52 217.08 128.43 217.09 128.35 217.09ZM152.93 211.17C152.43 211.17 151.92 211.04 151.46 210.76 139.25 203.28 131.67 191.25 131.67 179.35 131.67 175.01 132.55 170.21 134.01 166.51 134.59 165.06 136.2 164.35 137.67 164.93 139.12 165.5 139.83 167.14 139.25 168.59 137.81 172.2 137.31 176.52 137.31 179.35 137.31 189.3 143.86 199.5 154.4 205.95 155.72 206.76 156.14 208.5 155.33 209.83 154.8 210.7 153.88 211.18 152.93 211.18ZM73.28 204.61C72.37 204.61 71.48 204.17 70.93 203.35 70.07 202.05 70.43 200.31 71.72 199.45 89.39 187.73 103.67 176.38 118.03 162.64 125.53 155.47 138.09 141.1 138.09 125.4 138.09 115.98 131.74 105.96 119.98 105.96 109.5 105.96 101.48 118.01 93.72 129.67 89.58 135.89 85.67 141.77 81.31 146.03 69.41 157.65 57.13 164.55 43.45 171.75 42.07 172.47 40.37 171.95 39.64 170.57 38.91 169.19 39.44 167.49 40.82 166.77 54.1 159.78 66.01 153.09 77.36 142.01 81.3 138.16 85.05 132.53 89.02 126.56 97.6 113.67 106.47 100.34 119.97 100.34 134.84 100.34 143.73 113.09 143.73 125.42 143.73 143.22 130.07 158.94 121.93 166.74 107.32 180.72 92.8 192.26 74.84 204.17 74.36 204.49 73.82 204.64 73.28 204.64ZM177.65 197.41C177.31 197.41 176.95 197.35 176.62 197.21 155.75 189.02 151.37 172.14 151.37 159.43 151.37 153.94 152.45 148.81 153.59 143.38 154.92 137.02 156.3 130.45 156.3 122.14 156.3 107.32 143.69 86.79 119.99 86.79 100.01 86.79 87.91 102.21 82.47 111.4 77.16 120.39 62.36 142.19 39.72 150.56 38.27 151.1 36.63 150.35 36.09 148.89 35.55 147.43 36.3 145.81 37.76 145.26 52.3 139.89 67.2 126.16 77.62 108.53 83.66 98.3 97.21 81.15 119.99 81.15 145.08 81.15 161.94 102.34 161.94 122.13 161.94 131.03 160.43 138.2 159.1 144.53 157.98 149.89 157.01 154.51 157.01 159.42 157.01 170.38 160.77 184.92 178.68 191.95 180.13 192.52 180.84 194.16 180.27 195.61 179.83 196.72 178.77 197.4 177.65 197.4ZM56.41 192.18C55.47 192.18 54.54 191.71 54.01 190.84 53.19 189.52 53.6 187.78 54.94 186.96 75.37 174.39 102.82 153.57 117.62 125.79 118.35 124.41 120.07 123.9 121.43 124.63 122.81 125.36 123.33 127.07 122.59 128.45 107.2 157.34 78.91 178.83 57.89 191.77 57.43 192.05 56.92 192.19 56.41 192.19ZM189.5 182.16C189.13 182.16 188.74 182.09 188.38 181.93 174.14 175.74 171.27 166.52 171.27 153.66 171.27 145.51 172.21 141.41 173.2 137.08 174.26 132.51 175.33 127.78 175.33 117.15 175.33 93.41 154.17 67.78 119.97 67.78 94.12 67.78 81.61 80.69 71.01 93.92 69.84 95.38 68.55 97.09 67.17 98.93 60.49 107.83 51.35 120.02 39.77 124.7 38.32 125.29 36.69 124.59 36.1 123.15 35.52 121.7 36.21 120.06 37.66 119.48 47.77 115.38 56.37 103.92 62.65 95.55 64.08 93.65 65.4 91.89 66.6 90.4 78.06 76.11 91.62 62.15 119.97 62.15 157.64 62.15 180.97 90.7 180.97 117.16 180.97 128.43 179.76 133.7 178.69 138.35 177.77 142.37 176.9 146.17 176.9 153.68 176.9 166.65 180.23 172.26 190.61 176.78 192.04 177.4 192.69 179.06 192.07 180.49 191.61 181.55 190.57 182.18 189.48 182.18ZM192.07 163.35C191.49 163.35 190.91 163.17 190.4 162.81 189.15 161.89 188.87 160.13 189.79 158.87 195.35 151.27 198.8 138 198.8 124.22 198.8 116.72 198.2 108.51 193.84 99.2 193.18 97.79 193.79 96.11 195.2 95.45 196.58 94.8 198.28 95.39 198.95 96.81 203.79 107.15 204.45 116.47 204.45 124.23 204.45 139.37 200.67 153.56 194.35 162.2 193.79 162.96 192.94 163.35 192.07 163.35ZM43.3 95.74C42.76 95.74 42.23 95.59 41.75 95.28 40.45 94.42 40.09 92.68 40.95 91.37 54.58 70.68 77.6 43.17 119.98 43.17 149.38 43.17 176.6 57.85 192.8 82.43 193.66 83.73 193.3 85.48 192 86.34 190.71 87.19 188.96 86.84 188.09 85.54 172.94 62.54 147.48 48.81 119.98 48.81 80.32 48.81 58.57 74.87 45.66 94.48 45.12 95.3 44.21 95.75 43.3 95.75ZM187.67 57.75C186.94 57.75 186.21 57.47 185.66 56.9 168.46 39.33 144.89 29.21 121 29.12L120.66 29.12C95.18 29.12 72.45 38.61 54.9 56.58 53.8 57.69 52.02 57.72 50.91 56.63 49.8 55.54 49.78 53.76 50.86 52.65 69.51 33.56 93.63 23.49 120.65 23.49L121.01 23.49C146.41 23.58 171.43 34.32 189.68 52.96 190.77 54.07 190.75 55.86 189.64 56.95 189.09 57.49 188.38 57.75 187.67 57.75Z"/></g><path d="M237.77 240.59 206.44 240.59 206.44 234.95 234.94 234.95 234.94 206.44 240.58 206.44 240.58 237.77C240.58 239.33 239.32 240.59 237.76 240.59ZM34.15 240.59 2.82 240.59C1.26 240.59 0 239.33 0 237.77L0 206.44 5.64 206.44 5.64 234.95 34.14 234.95 34.14 240.59ZM240.59 34.15 234.95 34.15 234.95 5.64 206.45 5.64 206.45 0 237.78 0C239.34 0 240.6 1.26 240.6 2.82L240.6 34.15ZM5.64 34.15 0 34.15 0 2.82C0 1.26 1.26 0 2.82 0L34.15 0 34.15 5.64 5.64 5.64 5.64 34.15Z"/></g></svg>